{
  "source": "C:\\Users\\Peter\\Desktop\\stuff\\MIUN\\quantitative_research\\video_compression\\videos\\BVI-HD\\BVI-HD_CDVL_videos\\ORIG\\PlasmaSlowRandom_1920x1080_60fps.mp4",
  "output": "C:\\Users\\Peter\\Desktop\\stuff\\MIUN\\quantitative_research\\video_compression\\compressed_videos\\BVI-HD\\hevc\\3\\PlasmaSlowRandom_1920x1080_60fps_hevc.mp4",
  "codec": "hevc",
  "ok": "Input #0, mov,mp4,m4a,3gp,3g2,mj2, from 'C:\\Users\\Peter\\Desktop\\stuff\\MIUN\\quantitative_research\\video_compression\\videos\\BVI-HD\\BVI-HD_CDVL_videos\\ORIG\\PlasmaSlowRandom_1920x1080_60fps.mp4':\n  Metadata:\n    major_brand     : isom\n    minor_version   : 512\n    compatible_brands: isomiso2avc1mp41\n    encoder         : Lavf54.28.101\n  Duration: 00:00:05.00, start: 0.000000, bitrate: 23030 kb/s\n  Stream #0:0[0x1](und): Video: h264 (High 4:4:4 Predictive) (avc1 / 0x31637661), yuv420p(progressive), 1920x1080, 23026 kb/s, 60 fps, 60 tbr, 60 tbn (default)\n    Metadata:\n      handler_name    : VideoHandler\n      vendor_id       : [0][0][0][0]\n[out#0/mp4 @ 0000029f82df1000] Codec AVOption b:a (set bitrate (in bits/s)) has not been used for any stream. The most likely reason is either wrong type (e.g. a video option with no video streams) or that it is a private option of some decoder which was not actually used for any stream.\nStream mapping:\n  Stream #0:0 -> #0:0 (h264 (native) -> hevc (libx265))\nPress [q] to stop, [?] for help\n[libx265 @ 0000029f84b8d540] Unknown option: \"aq-mode.\nx265 [info]: HEVC encoder version 4.1+190-8f11c33ac\nx265 [info]: build info [Windows][GCC 15.1.0][64 bit] 10bit\nx265 [info]: using cpu capabilities: MMX2 SSE2Fast LZCNT SSSE3 SSE4.2 AVX FMA3 BMI2 AVX2\nx265 [info]: Main 10 profile, Level-4.1 (Main tier)\nx265 [info]: Thread pool created using 12 threads\nx265 [info]: Slices                              : 1\nx265 [info]: frame threads / pool features       : 3 / wpp(17 rows)\nx265 [info]: Coding QT: max CU size, min CU size : 64 / 8\nx265 [info]: Residual QT: max TU size, max depth : 32 / 1 inter / 1 intra\nx265 [info]: ME / range / subpel / merge         : star / 57 / 3 / 3\nx265 [info]: Keyframe min / max / scenecut / bias  : 25 / 250 / 40 / 5.00 \nx265 [info]: Lookahead / bframes / badapt        : 25 / 4 / 2\nx265 [info]: b-pyramid / weightp / weightb       : 1 / 1 / 0\nx265 [info]: References / ref-limit  cu / depth  : 4 / on / on\nx265 [info]: AQ: mode / str / qg-size / cu-tree  : 2 / 1.0 / 32 / 1\nx265 [info]: Rate Control / qCompress            : ABR-3000 kbps / 0.60\nx265 [info]: VBV/HRD buffer / max-rate / init    : 3000 / 3000 / 0.750\nx265 [info]: tools: rect limit-modes rd=4 psy-rd=2.00 rdoq=2 psy-rdoq=1.00\nx265 [info]: tools: rskip mode=1 signhide tmvp strong-intra-smoothing lslices=4\nx265 [info]: tools: deblock sao dhdr10-info\nOutput #0, mp4, to 'C:\\Users\\Peter\\Desktop\\stuff\\MIUN\\quantitative_research\\video_compression\\compressed_videos\\BVI-HD\\hevc\\3\\PlasmaSlowRandom_1920x1080_60fps_hevc.mp4':\n  Metadata:\n    major_brand     : isom\n    minor_version   : 512\n    compatible_brands: isomiso2avc1mp41\n    encoder         : Lavf62.3.100\n  Stream #0:0(und): Video: hevc (hev1 / 0x31766568), yuv420p10le(tv, progressive), 1920x1080, q=2-31, 3000 kb/s, 60 fps, 15360 tbn (default)\n    Metadata:\n      encoder         : Lavc62.11.100 libx265\n      handler_name    : VideoHandler\n      vendor_id       : [0][0][0][0]\n    Side data:\n      cpb: bitrate max/min/avg: 3000000/0/3000000 buffer size: 3000000 vbv_delay: N/A\nframe=    0 fps=0.0 q=0.0 size=       0KiB time=N/A bitrate=N/A speed=N/A elapsed=0:00:00.51    \nframe=    0 fps=0.0 q=0.0 size=       0KiB time=N/A bitrate=N/A speed=N/A elapsed=0:00:01.08    \nframe=    0 fps=0.0 q=0.0 size=       0KiB time=N/A bitrate=N/A speed=N/A elapsed=0:00:01.60    \nframe=    0 fps=0.0 q=0.0 size=       0KiB time=N/A bitrate=N/A speed=N/A elapsed=0:00:02.11    \nframe=    0 fps=0.0 q=0.0 size=       0KiB time=N/A bitrate=N/A speed=N/A elapsed=0:00:02.64    \nframe=    1 fps=0.3 q=37.7 size=       0KiB time=-00:00:00.01 bitrate=N/A speed=N/A elapsed=0:00:03.16    \nframe=    2 fps=0.5 q=40.2 size=       0KiB time=00:00:00.00 bitrate=N/A speed=   0x elapsed=0:00:03.69    \nframe=    3 fps=0.7 q=36.3 size=       0KiB time=00:00:00.01 bitrate=  21.1kbits/s speed=0.00394x elapsed=0:00:04.22    \nframe=    4 fps=0.8 q=36.1 size=       0KiB time=00:00:00.03 bitrate=  10.6kbits/s speed=0.00702x elapsed=0:00:04.74    \nframe=    4 fps=0.8 q=36.1 size=       0KiB time=00:00:00.03 bitrate=  10.6kbits/s speed=0.00631x elapsed=0:00:05.28    \nframe=    5 fps=0.9 q=37.0 size=       0KiB time=00:00:00.05 bitrate=   7.0kbits/s speed=0.0086x elapsed=0:00:05.81    \nframe=    7 fps=1.1 q=34.3 size=       0KiB time=00:00:00.08 bitrate=   4.2kbits/s speed=0.0131x elapsed=0:00:06.33    \nframe=    7 fps=1.0 q=34.3 size=       0KiB time=00:00:00.08 bitrate=   4.2kbits/s speed=0.0122x elapsed=0:00:06.84    \nframe=   10 fps=1.4 q=30.4 size=       0KiB time=00:00:00.13 bitrate=   2.6kbits/s speed=0.0181x elapsed=0:00:07.36    \nframe=   12 fps=1.5 q=28.9 size=       0KiB time=00:00:00.16 bitrate=   2.1kbits/s speed=0.0212x elapsed=0:00:07.87    \nframe=   13 fps=1.5 q=26.3 size=       0KiB time=00:00:00.16 bitrate=   2.1kbits/s speed=0.0198x elapsed=0:00:08.41    \nframe=   15 fps=1.7 q=28.8 size=       0KiB time=00:00:00.21 bitrate=   1.6kbits/s speed=0.0242x elapsed=0:00:08.95    \nframe=   15 fps=1.6 q=28.8 size=       0KiB time=00:00:00.21 bitrate=   1.6kbits/s speed=0.0229x elapsed=0:00:09.46    \nframe=   16 fps=1.6 q=28.4 size=       0KiB time=00:00:00.23 bitrate=   1.5kbits/s speed=0.0234x elapsed=0:00:09.97    \nframe=   17 fps=1.6 q=25.6 size=       0KiB time=00:00:00.25 bitrate=   1.4kbits/s speed=0.0238x elapsed=0:00:10.49    \nframe=   18 fps=1.6 q=27.0 size=       0KiB time=00:00:00.26 bitrate=   1.3kbits/s speed=0.0242x elapsed=0:00:11.02    \nframe=   19 fps=1.6 q=27.5 size=       0KiB time=00:00:00.28 bitrate=   1.2kbits/s speed=0.0245x elapsed=0:00:11.55    \nframe=   21 fps=1.7 q=24.4 size=       0KiB time=00:00:00.31 bitrate=   1.1kbits/s speed=0.0262x elapsed=0:00:12.09    \nframe=   23 fps=1.8 q=27.3 size=       0KiB time=00:00:00.35 bitrate=   1.0kbits/s speed=0.0277x elapsed=0:00:12.61    \nframe=   24 fps=1.8 q=26.4 size=       0KiB time=00:00:00.36 bitrate=   1.0kbits/s speed=0.0279x elapsed=0:00:13.13    \nframe=   26 fps=1.9 q=24.1 size=       0KiB time=00:00:00.40 bitrate=   0.9kbits/s speed=0.0293x elapsed=0:00:13.64    \nframe=   27 fps=1.9 q=26.3 size=       0KiB time=00:00:00.41 bitrate=   0.8kbits/s speed=0.0294x elapsed=0:00:14.17    \nframe=   29 fps=2.0 q=25.2 size=       0KiB time=00:00:00.45 bitrate=   0.8kbits/s speed=0.0306x elapsed=0:00:14.69    \nframe=   30 fps=2.0 q=26.2 size=       0KiB time=00:00:00.46 bitrate=   0.8kbits/s speed=0.0307x elapsed=0:00:15.20    \nframe=   32 fps=2.0 q=26.3 size=       0KiB time=00:00:00.50 bitrate=   0.7kbits/s speed=0.0318x elapsed=0:00:15.72    \nframe=   33 fps=2.0 q=23.1 size=       0KiB time=00:00:00.51 bitrate=   0.7kbits/s speed=0.0318x elapsed=0:00:16.26    \nframe=   35 fps=2.1 q=26.3 size=       0KiB time=00:00:00.55 bitrate=   0.6kbits/s speed=0.0328x elapsed=0:00:16.78    \nframe=   36 fps=2.1 q=25.4 size=       0KiB time=00:00:00.56 bitrate=   0.6kbits/s speed=0.0327x elapsed=0:00:17.31    \nframe=   37 fps=2.1 q=23.2 size=       0KiB time=00:00:00.58 bitrate=   0.6kbits/s speed=0.0327x elapsed=0:00:17.85    \nframe=   37 fps=2.0 q=23.2 size=       0KiB time=00:00:00.58 bitrate=   0.6kbits/s speed=0.0317x elapsed=0:00:18.39    \nframe=   38 fps=2.0 q=26.3 size=       0KiB time=00:00:00.60 bitrate=   0.6kbits/s speed=0.0317x elapsed=0:00:18.90    \nframe=   40 fps=2.1 q=25.2 size=       0KiB time=00:00:00.63 bitrate=   0.6kbits/s speed=0.0325x elapsed=0:00:19.46    \nframe=   41 fps=2.1 q=26.4 size=       0KiB time=00:00:00.65 bitrate=   0.5kbits/s speed=0.0325x elapsed=0:00:19.98    \nframe=   41 fps=2.0 q=26.4 size=       0KiB time=00:00:00.65 bitrate=   0.5kbits/s speed=0.0317x elapsed=0:00:20.50    \nframe=   42 fps=2.0 q=26.5 size=       0KiB time=00:00:00.66 bitrate=   0.5kbits/s speed=0.0316x elapsed=0:00:21.07    \nframe=   42 fps=1.9 q=26.5 size=       0KiB time=00:00:00.66 bitrate=   0.5kbits/s speed=0.0309x elapsed=0:00:21.60    \nframe=   44 fps=2.0 q=24.2 size=       0KiB time=00:00:00.70 bitrate=   0.5kbits/s speed=0.0316x elapsed=0:00:22.12    \nframe=   45 fps=2.0 q=25.1 size=       0KiB time=00:00:00.71 bitrate=   0.5kbits/s speed=0.0316x elapsed=0:00:22.66    \nframe=   46 fps=2.0 q=26.5 size=       0KiB time=00:00:00.73 bitrate=   0.5kbits/s speed=0.0316x elapsed=0:00:23.19    \nframe=   48 fps=2.0 q=25.5 size=       0KiB time=00:00:00.76 bitrate=   0.5kbits/s speed=0.0323x elapsed=0:00:23.70    \nframe=   49 fps=2.0 q=26.5 size=     256KiB time=00:00:00.78 bitrate=2677.7kbits/s speed=0.0323x elapsed=0:00:24.23    \nframe=   50 fps=2.0 q=26.5 size=     256KiB time=00:00:00.80 bitrate=2621.9kbits/s speed=0.0323x elapsed=0:00:24.76    \nframe=   51 fps=2.0 q=27.5 size=     256KiB time=00:00:00.81 bitrate=2568.4kbits/s speed=0.0323x elapsed=0:00:25.28    \nframe=   52 fps=2.0 q=24.4 size=     256KiB time=00:00:00.83 bitrate=2517.0kbits/s speed=0.0323x elapsed=0:00:25.82    \nframe=   53 fps=2.0 q=26.5 size=     256KiB time=00:00:00.85 bitrate=2467.7kbits/s speed=0.0323x elapsed=0:00:26.34    \nframe=   55 fps=2.0 q=26.6 size=     256KiB time=00:00:00.88 bitrate=2374.5kbits/s speed=0.0329x elapsed=0:00:26.86    \nframe=   57 fps=2.1 q=24.5 size=     256KiB time=00:00:00.91 bitrate=2288.2kbits/s speed=0.0335x elapsed=0:00:27.39    \nframe=   58 fps=2.1 q=25.6 size=     256KiB time=00:00:00.93 bitrate=2247.3kbits/s speed=0.0334x elapsed=0:00:27.92    \nframe=   60 fps=2.1 q=26.7 size=     256KiB time=00:00:00.96 bitrate=2169.8kbits/s speed=0.034x elapsed=0:00:28.44    \nframe=   61 fps=2.1 q=26.7 size=     256KiB time=00:00:00.98 bitrate=2133.1kbits/s speed=0.0339x elapsed=0:00:28.97    \nframe=   62 fps=2.1 q=24.5 size=     256KiB time=00:00:01.00 bitrate=2097.5kbits/s speed=0.0339x elapsed=0:00:29.50    \nframe=   63 fps=2.1 q=25.5 size=     256KiB time=00:00:01.01 bitrate=2063.1kbits/s speed=0.0339x elapsed=0:00:30.02    \nframe=   64 fps=2.1 q=27.6 size=     256KiB time=00:00:01.03 bitrate=2029.8kbits/s speed=0.0338x elapsed=0:00:30.55    \nframe=   66 fps=2.1 q=26.6 size=     256KiB time=00:00:01.06 bitrate=1966.4kbits/s speed=0.0343x elapsed=0:00:31.07    \nframe=   68 fps=2.2 q=27.7 size=     256KiB time=00:00:01.10 bitrate=1906.8kbits/s speed=0.0348x elapsed=0:00:31.61    \nframe=   68 fps=2.1 q=27.7 size=     256KiB time=00:00:01.10 bitrate=1906.8kbits/s speed=0.0342x elapsed=0:00:32.13    \nframe=   70 fps=2.1 q=25.3 size=     256KiB time=00:00:01.13 bitrate=1850.7kbits/s speed=0.0347x elapsed=0:00:32.68    \nframe=   71 fps=2.1 q=26.3 size=     256KiB time=00:00:01.15 bitrate=1823.9kbits/s speed=0.0346x elapsed=0:00:33.20    \nframe=   72 fps=2.1 q=27.7 size=     256KiB time=00:00:01.16 bitrate=1797.9kbits/s speed=0.0346x elapsed=0:00:33.72    \nframe=   72 fps=2.1 q=27.7 size=     256KiB time=00:00:01.16 bitrate=1797.9kbits/s speed=0.034x elapsed=0:00:34.27    \nframe=   73 fps=2.1 q=27.7 size=     256KiB time=00:00:01.18 bitrate=1772.5kbits/s speed=0.034x elapsed=0:00:34.78    \nframe=   74 fps=2.1 q=27.6 size=     256KiB time=00:00:01.20 bitrate=1747.9kbits/s speed=0.034x elapsed=0:00:35.31    \nframe=   75 fps=2.1 q=25.1 size=     256KiB time=00:00:01.21 bitrate=1724.0kbits/s speed=0.0339x elapsed=0:00:35.84    \nframe=   77 fps=2.1 q=27.7 size=     256KiB time=00:00:01.25 bitrate=1678.0kbits/s speed=0.0344x elapsed=0:00:36.37    \nframe=   77 fps=2.1 q=27.7 size=     256KiB time=00:00:01.25 bitrate=1678.0kbits/s speed=0.0339x elapsed=0:00:36.89    \nframe=   78 fps=2.1 q=27.6 size=     256KiB time=00:00:01.26 bitrate=1655.9kbits/s speed=0.0339x elapsed=0:00:37.41    \nframe=   79 fps=2.1 q=27.6 size=     256KiB time=00:00:01.28 bitrate=1634.4kbits/s speed=0.0338x elapsed=0:00:37.92    \nframe=   80 fps=2.1 q=25.1 size=     256KiB time=00:00:01.30 bitrate=1613.5kbits/s speed=0.0338x elapsed=0:00:38.44    \nframe=   81 fps=2.1 q=26.4 size=     256KiB time=00:00:01.31 bitrate=1593.0kbits/s speed=0.0338x elapsed=0:00:38.96    \nframe=   82 fps=2.1 q=27.6 size=     256KiB time=00:00:01.33 bitrate=1573.1kbits/s speed=0.0338x elapsed=0:00:39.47    \nframe=   84 fps=2.1 q=27.5 size=     256KiB time=00:00:01.36 bitrate=1534.8kbits/s speed=0.0342x elapsed=0:00:39.98    \nframe=   85 fps=2.1 q=28.5 size=     256KiB time=00:00:01.38 bitrate=1516.3kbits/s speed=0.0341x elapsed=0:00:40.54    \nframe=   86 fps=2.1 q=28.4 size=     256KiB time=00:00:01.40 bitrate=1498.2kbits/s speed=0.0341x elapsed=0:00:41.05    \nframe=   87 fps=2.1 q=28.5 size=     256KiB time=00:00:01.41 bitrate=1480.6kbits/s speed=0.0341x elapsed=0:00:41.59    \nframe=   87 fps=2.1 q=28.5 size=     256KiB time=00:00:01.41 bitrate=1480.6kbits/s speed=0.0336x elapsed=0:00:42.16    \nframe=   89 fps=2.1 q=27.3 size=     512KiB time=00:00:01.43 bitrate=2926.5kbits/s speed=0.0336x elapsed=0:00:42.69    \nframe=   90 fps=2.1 q=28.4 size=     512KiB time=00:00:01.46 bitrate=2860.0kbits/s speed=0.0339x elapsed=0:00:43.22    \nframe=   91 fps=2.1 q=25.6 size=     512KiB time=00:00:01.48 bitrate=2827.9kbits/s speed=0.0339x elapsed=0:00:43.74    \nframe=   92 fps=2.1 q=27.4 size=     512KiB time=00:00:01.50 bitrate=2796.4kbits/s speed=0.0339x elapsed=0:00:44.27    \nframe=   92 fps=2.1 q=27.4 size=     512KiB time=00:00:01.50 bitrate=2796.4kbits/s speed=0.0335x elapsed=0:00:44.81    \nframe=   93 fps=2.1 q=28.4 size=     512KiB time=00:00:01.51 bitrate=2765.7kbits/s speed=0.0335x elapsed=0:00:45.33    \nframe=   94 fps=2.0 q=28.4 size=     512KiB time=00:00:01.53 bitrate=2735.6kbits/s speed=0.0334x elapsed=0:00:45.85    \nframe=   95 fps=2.0 q=28.4 size=     512KiB time=00:00:01.55 bitrate=2706.2kbits/s speed=0.0334x elapsed=0:00:46.37    \nframe=   95 fps=2.0 q=28.4 size=     512KiB time=00:00:01.55 bitrate=2706.2kbits/s speed=0.0331x elapsed=0:00:46.89    \nframe=   97 fps=2.0 q=26.6 size=     512KiB time=00:00:01.58 bitrate=2649.3kbits/s speed=0.0334x elapsed=0:00:47.41    \nframe=   98 fps=2.0 q=28.3 size=     512KiB time=00:00:01.60 bitrate=2621.7kbits/s speed=0.0334x elapsed=0:00:47.95    \nframe=   99 fps=2.0 q=28.3 size=     512KiB time=00:00:01.61 bitrate=2594.6kbits/s speed=0.0333x elapsed=0:00:48.49    \nframe=   99 fps=2.0 q=28.3 size=     512KiB time=00:00:01.61 bitrate=2594.6kbits/s speed=0.033x elapsed=0:00:49.01    \nframe=  100 fps=2.0 q=28.2 size=     512KiB time=00:00:01.63 bitrate=2568.2kbits/s speed=0.033x elapsed=0:00:49.52    \nframe=  100 fps=2.0 q=28.2 size=     512KiB time=00:00:01.63 bitrate=2568.2kbits/s speed=0.0326x elapsed=0:00:50.05    \nframe=  101 fps=2.0 q=25.6 size=     512KiB time=00:00:01.65 bitrate=2542.2kbits/s speed=0.0326x elapsed=0:00:50.57    \nframe=  102 fps=2.0 q=26.8 size=     512KiB time=00:00:01.66 bitrate=2516.8kbits/s speed=0.0326x elapsed=0:00:51.11    \nframe=  103 fps=2.0 q=28.2 size=     512KiB time=00:00:01.68 bitrate=2491.9kbits/s speed=0.0326x elapsed=0:00:51.62    \nframe=  104 fps=2.0 q=28.2 size=     512KiB time=00:00:01.70 bitrate=2467.4kbits/s speed=0.0326x elapsed=0:00:52.14    \nframe=  105 fps=2.0 q=28.2 size=     512KiB time=00:00:01.71 bitrate=2443.5kbits/s speed=0.0326x elapsed=0:00:52.67    \nframe=  106 fps=2.0 q=25.8 size=     512KiB time=00:00:01.73 bitrate=2420.0kbits/s speed=0.0326x elapsed=0:00:53.19    \nframe=  107 fps=2.0 q=26.7 size=     512KiB time=00:00:01.75 bitrate=2396.9kbits/s speed=0.0326x elapsed=0:00:53.71    \nframe=  109 fps=2.0 q=25.8 size=     512KiB time=00:00:01.78 bitrate=2352.1kbits/s speed=0.0329x elapsed=0:00:54.21    \nframe=  111 fps=2.0 q=28.2 size=     512KiB time=00:00:01.81 bitrate=2309.0kbits/s speed=0.0332x elapsed=0:00:54.74    \nframe=  112 fps=2.0 q=28.2 size=     512KiB time=00:00:01.83 bitrate=2288.0kbits/s speed=0.0332x elapsed=0:00:55.26    \nframe=  113 fps=2.0 q=28.3 size=     512KiB time=00:00:01.85 bitrate=2267.4kbits/s speed=0.0332x elapsed=0:00:55.76    \nframe=  114 fps=2.0 q=25.6 size=     512KiB time=00:00:01.86 bitrate=2247.1kbits/s speed=0.0332x elapsed=0:00:56.30    \nframe=  115 fps=2.0 q=26.9 size=     512KiB time=00:00:01.88 bitrate=2227.3kbits/s speed=0.0331x elapsed=0:00:56.82    \nframe=  117 fps=2.0 q=25.6 size=     512KiB time=00:00:01.91 bitrate=2188.5kbits/s speed=0.0334x elapsed=0:00:57.34    \nframe=  120 fps=2.1 q=28.3 size=     512KiB time=00:00:01.96 bitrate=2132.9kbits/s speed=0.034x elapsed=0:00:57.86    \nframe=  121 fps=2.1 q=25.6 size=     512KiB time=00:00:01.98 bitrate=2115.0kbits/s speed=0.034x elapsed=0:00:58.38    \nframe=  121 fps=2.1 q=25.6 size=     512KiB time=00:00:01.98 bitrate=2115.0kbits/s speed=0.0337x elapsed=0:00:58.92    \nframe=  124 fps=2.1 q=27.0 size=     512KiB time=00:00:02.03 bitrate=2062.9kbits/s speed=0.0342x elapsed=0:00:59.47    \nframe=  126 fps=2.1 q=28.3 size=     512KiB time=00:00:02.06 bitrate=2029.7kbits/s speed=0.0344x elapsed=0:00:59.99    \nframe=  127 fps=2.1 q=25.4 size=     512KiB time=00:00:02.08 bitrate=2013.4kbits/s speed=0.0344x elapsed=0:01:00.52    \nframe=  128 fps=2.1 q=26.6 size=     768KiB time=00:00:02.10 bitrate=2996.1kbits/s speed=0.0344x elapsed=0:01:01.05    \nframe=  131 fps=2.1 q=28.3 size=     768KiB time=00:00:02.15 bitrate=2926.4kbits/s speed=0.0349x elapsed=0:01:01.59    \nframe=  131 fps=2.1 q=28.3 size=     768KiB time=00:00:02.15 bitrate=2926.4kbits/s speed=0.0346x elapsed=0:01:02.12    \nframe=  132 fps=2.1 q=25.0 size=     768KiB time=00:00:02.16 bitrate=2903.9kbits/s speed=0.0346x elapsed=0:01:02.63    \nframe=  133 fps=2.1 q=26.5 size=     768KiB time=00:00:02.18 bitrate=2881.7kbits/s speed=0.0346x elapsed=0:01:03.15    \nframe=  135 fps=2.1 q=28.2 size=     768KiB time=00:00:02.21 bitrate=2838.4kbits/s speed=0.0348x elapsed=0:01:03.68    \nframe=  137 fps=2.1 q=25.4 size=     768KiB time=00:00:02.25 bitrate=2796.4kbits/s speed=0.035x elapsed=0:01:04.21    \nframe=  138 fps=2.1 q=27.0 size=     768KiB time=00:00:02.26 bitrate=2775.8kbits/s speed=0.035x elapsed=0:01:04.73    \nframe=  140 fps=2.1 q=28.2 size=     768KiB time=00:00:02.30 bitrate=2735.6kbits/s speed=0.0352x elapsed=0:01:05.25    \nframe=  141 fps=2.1 q=28.2 size=     768KiB time=00:00:02.31 bitrate=2715.9kbits/s speed=0.0352x elapsed=0:01:05.76    \nframe=  142 fps=2.1 q=24.9 size=     768KiB time=00:00:02.33 bitrate=2696.5kbits/s speed=0.0352x elapsed=0:01:06.29    \nframe=  145 fps=2.2 q=28.1 size=     768KiB time=00:00:02.38 bitrate=2639.9kbits/s speed=0.0356x elapsed=0:01:06.86    \nframe=  146 fps=2.2 q=24.0 size=     768KiB time=00:00:02.40 bitrate=2621.6kbits/s speed=0.0356x elapsed=0:01:07.39    \nframe=  147 fps=2.2 q=26.6 size=     768KiB time=00:00:02.41 bitrate=2603.5kbits/s speed=0.0356x elapsed=0:01:07.92    \nframe=  150 fps=2.2 q=28.1 size=     768KiB time=00:00:02.45 bitrate=2568.1kbits/s speed=0.0358x elapsed=0:01:08.45    \nframe=  151 fps=2.2 q=25.0 size=     768KiB time=00:00:02.48 bitrate=2533.6kbits/s speed=0.036x elapsed=0:01:08.99    \nframe=  151 fps=2.2 q=25.0 size=     768KiB time=00:00:02.48 bitrate=2533.6kbits/s speed=0.0357x elapsed=0:01:09.52    \nframe=  152 fps=2.2 q=26.6 size=     768KiB time=00:00:02.50 bitrate=2516.7kbits/s speed=0.0357x elapsed=0:01:10.05    \nframe=  154 fps=2.2 q=28.1 size=     768KiB time=00:00:02.53 bitrate=2483.6kbits/s speed=0.0359x elapsed=0:01:10.56    \nframe=  155 fps=2.2 q=25.2 size=     768KiB time=00:00:02.55 bitrate=2467.4kbits/s speed=0.0359x elapsed=0:01:11.08    \nframe=  157 fps=2.2 q=28.1 size=     768KiB time=00:00:02.58 bitrate=2435.5kbits/s speed=0.0361x elapsed=0:01:11.59    \nframe=  159 fps=2.2 q=26.8 size=     768KiB time=00:00:02.61 bitrate=2404.5kbits/s speed=0.0363x elapsed=0:01:12.12    \nframe=  162 fps=2.2 q=25.3 size=     768KiB time=00:00:02.66 bitrate=2359.4kbits/s speed=0.0367x elapsed=0:01:12.64    \nframe=  163 fps=2.2 q=26.9 size=     768KiB time=00:00:02.68 bitrate=2344.8kbits/s speed=0.0367x elapsed=0:01:13.16    \nframe=  164 fps=2.2 q=28.0 size=     768KiB time=00:00:02.70 bitrate=2330.3kbits/s speed=0.0366x elapsed=0:01:13.71    \nframe=  167 fps=2.3 q=28.0 size=     768KiB time=00:00:02.75 bitrate=2287.9kbits/s speed=0.0371x elapsed=0:01:14.22    \nframe=  169 fps=2.3 q=26.6 size=     768KiB time=00:00:02.78 bitrate=2260.5kbits/s speed=0.0372x elapsed=0:01:14.74    \nframe=  171 fps=2.3 q=28.0 size=    1024KiB time=00:00:02.81 bitrate=2978.3kbits/s speed=0.0374x elapsed=0:01:15.24    \nframe=  172 fps=2.3 q=28.1 size=    1024KiB time=00:00:02.83 bitrate=2960.8kbits/s speed=0.0374x elapsed=0:01:15.78    \nframe=  175 fps=2.3 q=28.1 size=    1024KiB time=00:00:02.88 bitrate=2909.5kbits/s speed=0.0378x elapsed=0:01:16.30    \nframe=  176 fps=2.3 q=27.9 size=    1024KiB time=00:00:02.90 bitrate=2892.7kbits/s speed=0.0378x elapsed=0:01:16.81    \nframe=  179 fps=2.3 q=28.1 size=    1024KiB time=00:00:02.95 bitrate=2843.7kbits/s speed=0.0381x elapsed=0:01:17.34    \nframe=  182 fps=2.3 q=26.8 size=    1024KiB time=00:00:03.00 bitrate=2796.3kbits/s speed=0.0385x elapsed=0:01:17.87    \nframe=  184 fps=2.3 q=28.1 size=    1024KiB time=00:00:03.03 bitrate=2765.6kbits/s speed=0.0387x elapsed=0:01:18.37    \nframe=  187 fps=2.4 q=27.1 size=    1024KiB time=00:00:03.08 bitrate=2720.7kbits/s speed=0.0391x elapsed=0:01:18.89    \nframe=  188 fps=2.4 q=28.2 size=    1024KiB time=00:00:03.10 bitrate=2706.1kbits/s speed=0.039x elapsed=0:01:19.40    \nframe=  192 fps=2.4 q=26.9 size=    1024KiB time=00:00:03.16 bitrate=2649.1kbits/s speed=0.0396x elapsed=0:01:19.92    \nframe=  196 fps=2.4 q=28.2 size=    1024KiB time=00:00:03.23 bitrate=2594.5kbits/s speed=0.0402x elapsed=0:01:20.44    \nframe=  198 fps=2.4 q=26.1 size=    1024KiB time=00:00:03.26 bitrate=2568.0kbits/s speed=0.0404x elapsed=0:01:20.95    \nframe=  202 fps=2.5 q=25.6 size=    1024KiB time=00:00:03.33 bitrate=2516.7kbits/s speed=0.0409x elapsed=0:01:21.47    \nframe=  207 fps=2.5 q=27.1 size=    1024KiB time=00:00:03.41 bitrate=2455.3kbits/s speed=0.0417x elapsed=0:01:22.00    \nframe=  211 fps=2.6 q=27.0 size=    1024KiB time=00:00:03.48 bitrate=2408.3kbits/s speed=0.0422x elapsed=0:01:22.53    \nframe=  215 fps=2.6 q=27.3 size=    1280KiB time=00:00:03.55 bitrate=2953.8kbits/s speed=0.0427x elapsed=0:01:23.05    \nframe=  221 fps=2.6 q=28.2 size=    1280KiB time=00:00:03.65 bitrate=2872.9kbits/s speed=0.0437x elapsed=0:01:23.57    \nframe=  227 fps=2.7 q=28.2 size=    1280KiB time=00:00:03.75 bitrate=2796.3kbits/s speed=0.0446x elapsed=0:01:24.07    \nframe=  232 fps=2.7 q=25.7 size=    1280KiB time=00:00:03.83 bitrate=2735.5kbits/s speed=0.0453x elapsed=0:01:24.60    \nframe=  237 fps=2.8 q=26.0 size=    1280KiB time=00:00:03.91 bitrate=2677.3kbits/s speed=0.046x elapsed=0:01:25.12    \nframe=  242 fps=2.8 q=25.1 size=    1280KiB time=00:00:04.00 bitrate=2621.5kbits/s speed=0.0467x elapsed=0:01:25.64    \nframe=  246 fps=2.9 q=27.5 size=    1280KiB time=00:00:04.06 bitrate=2578.6kbits/s speed=0.0472x elapsed=0:01:26.16    \nframe=  250 fps=2.9 q=22.6 size=    1280KiB time=00:00:04.13 bitrate=2537.0kbits/s speed=0.0477x elapsed=0:01:26.68    \nframe=  257 fps=2.9 q=28.6 size=    1536KiB time=00:00:04.23 bitrate=2972.4kbits/s speed=0.0486x elapsed=0:01:27.18    \nframe=  260 fps=3.0 q=26.5 size=    1536KiB time=00:00:04.30 bitrate=2926.3kbits/s speed=0.049x elapsed=0:01:27.70    \nframe=  265 fps=3.0 q=26.6 size=    1536KiB time=00:00:04.38 bitrate=2870.7kbits/s speed=0.0497x elapsed=0:01:28.22    \nframe=  269 fps=3.0 q=26.5 size=    1536KiB time=00:00:04.45 bitrate=2827.7kbits/s speed=0.0501x elapsed=0:01:28.74    \nframe=  276 fps=3.1 q=27.7 size=    1536KiB time=00:00:04.56 bitrate=2755.5kbits/s speed=0.0512x elapsed=0:01:29.26    \nframe=  279 fps=3.1 q=26.5 size=    1536KiB time=00:00:04.61 bitrate=2725.6kbits/s speed=0.0514x elapsed=0:01:29.79    \nframe=  286 fps=3.2 q=28.5 size=    1536KiB time=00:00:04.73 bitrate=2658.4kbits/s speed=0.0524x elapsed=0:01:30.31    \nframe=  292 fps=3.2 q=25.1 size=    1536KiB time=00:00:04.83 bitrate=2603.4kbits/s speed=0.0532x elapsed=0:01:30.83    \nframe=  297 fps=3.3 q=25.4 size=    1536KiB time=00:00:04.91 bitrate=2559.3kbits/s speed=0.0538x elapsed=0:01:31.35    \n[mp4 @ 0000029f82df1100] Starting second pass: moving the moov atom to the beginning of the file\n[out#0/mp4 @ 0000029f82df1000] video:1812KiB audio:0KiB subtitle:0KiB other streams:0KiB global headers:2KiB muxing overhead: 0.378686%\nframe=  300 fps=3.3 q=28.4 Lsize=    1819KiB time=00:00:04.96 bitrate=2999.8kbits/s speed=0.0542x elapsed=0:01:31.69    \nx265 [info]: frame I:      2, Avg QP:30.15  kb/s: 2571.60 \nx265 [info]: frame P:     71, Avg QP:25.74  kb/s: 3674.36 \nx265 [info]: frame B:    227, Avg QP:27.78  kb/s: 2748.79 \nx265 [info]: Weighted P-Frames: Y:12.7% UV:12.7%\n\nencoded 300 frames in 91.55s (3.28 fps), 2966.66 kb/s, Avg QP:27.31\n",
  "seconds": 91.91561102867126,
  "probe_out": {}
}